<mxfile host="app.diagrams.net" modified="2022-10-20T07:48:39.678Z" agent="5.0 (Windows NT 10.0; Win64; x64) AppleWebKit/537.36 (KHTML, like Gecko) Chrome/106.0.0.0 Safari/537.36" etag="e311O1BH9j8IgfuQls32" version="20.4.2" type="github">
  <diagram id="AjXxPNwB8G-ctWKh0pyr" name="Page-1">
    <mxGraphModel dx="1038" dy="571" grid="1" gridSize="10" guides="1" tooltips="1" connect="1" arrows="1" fold="1" page="1" pageScale="1" pageWidth="850" pageHeight="1100" math="0" shadow="0">
      <root>
        <mxCell id="0" />
        <mxCell id="1" parent="0" />
        <mxCell id="TdkDroG8abzqriaLvyUH-1" value="selection" style="swimlane;fontStyle=2;align=center;verticalAlign=top;childLayout=stackLayout;horizontal=1;startSize=26;horizontalStack=0;resizeParent=1;resizeLast=0;collapsible=1;marginBottom=0;rounded=0;shadow=0;strokeWidth=1;fillColor=#1ba1e2;strokeColor=#006EAF;fontColor=#ffffff;" parent="1" vertex="1">
          <mxGeometry x="29" y="110" width="510" height="180" as="geometry">
            <mxRectangle x="29" y="110" width="160" height="26" as="alternateBounds" />
          </mxGeometry>
        </mxCell>
        <mxCell id="TdkDroG8abzqriaLvyUH-2" value="-head:Node" style="text;align=left;verticalAlign=top;spacingLeft=4;spacingRight=4;overflow=hidden;rotatable=0;points=[[0,0.5],[1,0.5]];portConstraint=eastwest;" parent="TdkDroG8abzqriaLvyUH-1" vertex="1">
          <mxGeometry y="26" width="510" height="26" as="geometry" />
        </mxCell>
        <mxCell id="TdkDroG8abzqriaLvyUH-3" value="" style="line;html=1;strokeWidth=1;align=left;verticalAlign=middle;spacingTop=-1;spacingLeft=3;spacingRight=3;rotatable=0;labelPosition=right;points=[];portConstraint=eastwest;" parent="TdkDroG8abzqriaLvyUH-1" vertex="1">
          <mxGeometry y="52" width="510" height="8" as="geometry" />
        </mxCell>
        <mxCell id="TdkDroG8abzqriaLvyUH-4" value="+add(value : int) : void&#xa;+printLine(head : Node) : void&#xa;+swap(head : Node, curr_node1 : Node, curr_node2 : Node, prev_node : Node) : static Node&#xa;+Selection_Sort(head : Node) : static Node&#xa;+sort(head : Node) : static Node&#xa;+printList(head : Node) : static void&#xa;+main() : static void" style="text;align=left;verticalAlign=top;spacingLeft=4;spacingRight=4;overflow=hidden;rotatable=0;points=[[0,0.5],[1,0.5]];portConstraint=eastwest;" parent="TdkDroG8abzqriaLvyUH-1" vertex="1">
          <mxGeometry y="60" width="510" height="120" as="geometry" />
        </mxCell>
        <mxCell id="TdkDroG8abzqriaLvyUH-5" value="Node" style="swimlane;fontStyle=2;align=center;verticalAlign=top;childLayout=stackLayout;horizontal=1;startSize=26;horizontalStack=0;resizeParent=1;resizeLast=0;collapsible=1;marginBottom=0;rounded=0;shadow=0;strokeWidth=1;fillColor=#1ba1e2;strokeColor=#006EAF;fontColor=#ffffff;" parent="1" vertex="1">
          <mxGeometry x="609" y="110" width="190" height="180" as="geometry">
            <mxRectangle x="230" y="140" width="160" height="26" as="alternateBounds" />
          </mxGeometry>
        </mxCell>
        <mxCell id="TdkDroG8abzqriaLvyUH-6" value="-value : int&#xa;-next : Node&#xa;-prev : Node&#xa;" style="text;align=left;verticalAlign=top;spacingLeft=4;spacingRight=4;overflow=hidden;rotatable=0;points=[[0,0.5],[1,0.5]];portConstraint=eastwest;" parent="TdkDroG8abzqriaLvyUH-5" vertex="1">
          <mxGeometry y="26" width="190" height="44" as="geometry" />
        </mxCell>
        <mxCell id="TdkDroG8abzqriaLvyUH-7" value="" style="line;html=1;strokeWidth=1;align=left;verticalAlign=middle;spacingTop=-1;spacingLeft=3;spacingRight=3;rotatable=0;labelPosition=right;points=[];portConstraint=eastwest;" parent="TdkDroG8abzqriaLvyUH-5" vertex="1">
          <mxGeometry y="70" width="190" height="8" as="geometry" />
        </mxCell>
        <mxCell id="TdkDroG8abzqriaLvyUH-8" value="+constructor(value : int)&#xa;+setNext(next : Node) : void&#xa;+getNext() : Node&#xa;+setPrev(prev : Node) : void&#xa;+getPrev() : Node&#xa;+getValue : int&#xa;&#xa;" style="text;align=left;verticalAlign=top;spacingLeft=4;spacingRight=4;overflow=hidden;rotatable=0;points=[[0,0.5],[1,0.5]];portConstraint=eastwest;" parent="TdkDroG8abzqriaLvyUH-5" vertex="1">
          <mxGeometry y="78" width="190" height="90" as="geometry" />
        </mxCell>
        <UserObject label="Start" lucidchartObjectId="P-AYE-fa65KO" id="TdkDroG8abzqriaLvyUH-9">
          <mxCell style="html=1;overflow=block;blockSpacing=1;whiteSpace=wrap;rounded=1;arcSize=50;fontSize=11;fontColor=#3a414a;spacing=3.8;strokeColor=#3a414a;strokeOpacity=100;strokeWidth=0.8;" parent="1" vertex="1">
            <mxGeometry x="47" y="460" width="82" height="30" as="geometry" />
          </mxCell>
        </UserObject>
        <UserObject label="Input data for list sorting" lucidchartObjectId="5-AYdv.37LMC" id="TdkDroG8abzqriaLvyUH-10">
          <mxCell style="html=1;overflow=block;blockSpacing=1;whiteSpace=wrap;shape=parallelogram;perimeter=parallelogramPerimeter;anchorPointDirection=0;fontSize=11;fontColor=#3a414a;spacing=3.8;strokeColor=#3a414a;strokeOpacity=100;rounded=1;absoluteArcSize=1;arcSize=9;strokeWidth=0.8;" parent="1" vertex="1">
            <mxGeometry x="7" y="530" width="162" height="50" as="geometry" />
          </mxCell>
        </UserObject>
        <UserObject label="head.getNext == null?" lucidchartObjectId="rcBYSQjpBC0I" id="TdkDroG8abzqriaLvyUH-11">
          <mxCell style="html=1;overflow=block;blockSpacing=1;whiteSpace=wrap;rhombus;fontSize=11;fontColor=#3a414a;spacing=3.8;strokeColor=#3a414a;strokeOpacity=100;rounded=1;absoluteArcSize=1;arcSize=9;strokeWidth=0.8;" parent="1" vertex="1">
            <mxGeometry x="193.64" y="717.13" width="128.75" height="65.75" as="geometry" />
          </mxCell>
        </UserObject>
        <UserObject label="Print sorted list" lucidchartObjectId="qeBYo79vuY6-" id="TdkDroG8abzqriaLvyUH-12">
          <mxCell style="html=1;overflow=block;blockSpacing=1;whiteSpace=wrap;shape=parallelogram;perimeter=parallelogramPerimeter;anchorPointDirection=0;fontSize=11;fontColor=#3a414a;spacing=3.8;strokeColor=#3a414a;strokeOpacity=100;rounded=1;absoluteArcSize=1;arcSize=9;strokeWidth=0.8;" parent="1" vertex="1">
            <mxGeometry x="203.01" y="899.5" width="110" height="30" as="geometry" />
          </mxCell>
        </UserObject>
        <UserObject label="Finish" lucidchartObjectId="teBY_pYD_.2O" id="TdkDroG8abzqriaLvyUH-13">
          <mxCell style="html=1;overflow=block;blockSpacing=1;whiteSpace=wrap;rounded=1;arcSize=50;fontSize=11;fontColor=#3a414a;spacing=3.8;strokeColor=#3a414a;strokeOpacity=100;strokeWidth=0.8;" parent="1" vertex="1">
            <mxGeometry x="214.26" y="1060" width="87.5" height="30" as="geometry" />
          </mxCell>
        </UserObject>
        <UserObject label="Set the first element as head " lucidchartObjectId="Br1Y1ZwJfyt0" id="TdkDroG8abzqriaLvyUH-14">
          <mxCell style="html=1;overflow=block;blockSpacing=1;whiteSpace=wrap;fontSize=11;fontColor=#3a414a;spacing=9;strokeColor=#3a414a;strokeOpacity=100;rounded=1;absoluteArcSize=1;arcSize=9;strokeWidth=0.8;" parent="1" vertex="1">
            <mxGeometry x="3" y="620" width="170" height="60" as="geometry" />
          </mxCell>
        </UserObject>
        <UserObject label="head == minNode?" lucidchartObjectId="kv1Y.qvVKMwY" id="TdkDroG8abzqriaLvyUH-15">
          <mxCell style="html=1;overflow=block;blockSpacing=1;whiteSpace=wrap;rhombus;fontSize=11;fontColor=#3a414a;spacing=3.8;strokeColor=#3a414a;strokeOpacity=100;rounded=1;absoluteArcSize=1;arcSize=9;strokeWidth=0.8;" parent="1" vertex="1">
            <mxGeometry x="554.3799999999999" y="791.19" width="107.25" height="85.62" as="geometry" />
          </mxCell>
        </UserObject>
        <UserObject label="Swap the position of head with minNode" lucidchartObjectId="Iz1Yd_9tekZY" id="TdkDroG8abzqriaLvyUH-16">
          <mxCell style="html=1;overflow=block;blockSpacing=1;whiteSpace=wrap;fontSize=11;fontColor=#3a414a;spacing=9;strokeColor=#3a414a;strokeOpacity=100;rounded=1;absoluteArcSize=1;arcSize=9;strokeWidth=0.8;" parent="1" vertex="1">
            <mxGeometry x="522.9999999999999" y="940" width="170" height="40" as="geometry" />
          </mxCell>
        </UserObject>
        <UserObject label="" lucidchartObjectId="dC1YTlw2Xgu_" id="TdkDroG8abzqriaLvyUH-17">
          <mxCell style="html=1;jettySize=18;whiteSpace=wrap;fontSize=11;strokeColor=#3a414a;strokeOpacity=100;strokeWidth=0.8;rounded=1;arcSize=12;edgeStyle=orthogonalEdgeStyle;startArrow=none;endArrow=block;endFill=1;exitX=0.5;exitY=1.006;exitPerimeter=0;entryX=0.5;entryY=-0.004;entryPerimeter=0;" parent="1" source="TdkDroG8abzqriaLvyUH-9" target="TdkDroG8abzqriaLvyUH-10" edge="1">
            <mxGeometry width="100" height="100" relative="1" as="geometry">
              <Array as="points" />
            </mxGeometry>
          </mxCell>
        </UserObject>
        <UserObject label="" lucidchartObjectId="fC1YdAKxsWdv" id="TdkDroG8abzqriaLvyUH-18">
          <mxCell style="html=1;jettySize=18;whiteSpace=wrap;fontSize=11;strokeColor=#3a414a;strokeOpacity=100;strokeWidth=0.8;rounded=1;arcSize=12;edgeStyle=orthogonalEdgeStyle;startArrow=none;endArrow=block;endFill=1;exitX=0.5;exitY=1.004;exitPerimeter=0;entryX=0.5;entryY=-0.004;entryPerimeter=0;" parent="1" source="TdkDroG8abzqriaLvyUH-10" target="TdkDroG8abzqriaLvyUH-14" edge="1">
            <mxGeometry width="100" height="100" relative="1" as="geometry">
              <Array as="points" />
            </mxGeometry>
          </mxCell>
        </UserObject>
        <UserObject label="head == null?" lucidchartObjectId="fG-YK~sB5PWw" id="TdkDroG8abzqriaLvyUH-19">
          <mxCell style="html=1;overflow=block;blockSpacing=1;whiteSpace=wrap;rhombus;fontSize=11;fontColor=#3a414a;spacing=3.8;strokeColor=#3a414a;strokeOpacity=100;rounded=1;absoluteArcSize=1;arcSize=9;strokeWidth=0.8;" parent="1" vertex="1">
            <mxGeometry x="12.629999999999999" y="730" width="150.75" height="40" as="geometry" />
          </mxCell>
        </UserObject>
        <UserObject label="" lucidchartObjectId="6N-Yt_Y7DIQG" id="TdkDroG8abzqriaLvyUH-20">
          <mxCell style="html=1;jettySize=18;whiteSpace=wrap;fontSize=11;strokeColor=#3a414a;strokeOpacity=100;strokeWidth=0.8;rounded=1;arcSize=12;edgeStyle=orthogonalEdgeStyle;startArrow=none;endArrow=block;endFill=1;exitX=0.5;exitY=1.004;exitPerimeter=0;entryX=0.5;entryY=0.006;entryPerimeter=0;" parent="1" source="TdkDroG8abzqriaLvyUH-14" target="TdkDroG8abzqriaLvyUH-19" edge="1">
            <mxGeometry width="100" height="100" relative="1" as="geometry">
              <Array as="points" />
            </mxGeometry>
          </mxCell>
        </UserObject>
        <UserObject label="" lucidchartObjectId="p0-Y~C6NYYgA" id="TdkDroG8abzqriaLvyUH-21">
          <mxCell style="html=1;jettySize=18;whiteSpace=wrap;fontSize=11;fontColor=#333333;fontStyle=1;strokeColor=#3a414a;strokeOpacity=100;strokeWidth=0.8;rounded=1;arcSize=12;edgeStyle=orthogonalEdgeStyle;startArrow=none;endArrow=block;endFill=1;exitX=0.987;exitY=0.5;exitPerimeter=0;entryX=0.009;entryY=0.5;entryPerimeter=0;" parent="1" source="TdkDroG8abzqriaLvyUH-19" target="TdkDroG8abzqriaLvyUH-11" edge="1">
            <mxGeometry width="100" height="100" relative="1" as="geometry">
              <Array as="points" />
            </mxGeometry>
          </mxCell>
        </UserObject>
        <mxCell id="TdkDroG8abzqriaLvyUH-22" value="No" style="text;html=1;resizable=0;labelBackgroundColor=default;align=center;verticalAlign=middle;fontStyle=1;fontColor=#333333;fontSize=11;" parent="TdkDroG8abzqriaLvyUH-21" vertex="1">
          <mxGeometry relative="1" as="geometry" />
        </mxCell>
        <UserObject label="" lucidchartObjectId="X1-Ygha_4zlp" id="TdkDroG8abzqriaLvyUH-23">
          <mxCell style="html=1;jettySize=18;whiteSpace=wrap;fontSize=11;fontColor=#333333;fontStyle=1;strokeColor=#3a414a;strokeOpacity=100;strokeWidth=0.8;rounded=1;arcSize=12;edgeStyle=orthogonalEdgeStyle;startArrow=none;endArrow=block;endFill=1;exitX=0.5;exitY=0.994;exitPerimeter=0;entryX=-0.003;entryY=0.5;entryPerimeter=0;" parent="1" source="TdkDroG8abzqriaLvyUH-19" target="TdkDroG8abzqriaLvyUH-13" edge="1">
            <mxGeometry width="100" height="100" relative="1" as="geometry">
              <Array as="points" />
            </mxGeometry>
          </mxCell>
        </UserObject>
        <mxCell id="TdkDroG8abzqriaLvyUH-24" value="Yes" style="text;html=1;resizable=0;labelBackgroundColor=default;align=center;verticalAlign=middle;fontStyle=1;fontColor=#333333;fontSize=11;" parent="TdkDroG8abzqriaLvyUH-23" vertex="1">
          <mxGeometry relative="1" as="geometry" />
        </mxCell>
        <UserObject label="" lucidchartObjectId="h2-Yvks_kVAt" id="TdkDroG8abzqriaLvyUH-25">
          <mxCell style="html=1;jettySize=18;whiteSpace=wrap;fontSize=11;fontColor=#333333;fontStyle=1;strokeColor=#3a414a;strokeOpacity=100;strokeWidth=0.8;rounded=1;arcSize=12;edgeStyle=orthogonalEdgeStyle;startArrow=none;endArrow=block;endFill=1;exitX=0.5;exitY=0.994;exitPerimeter=0;entryX=0.5;entryY=-0.004;entryPerimeter=0;" parent="1" source="TdkDroG8abzqriaLvyUH-11" target="TdkDroG8abzqriaLvyUH-12" edge="1">
            <mxGeometry width="100" height="100" relative="1" as="geometry">
              <Array as="points" />
            </mxGeometry>
          </mxCell>
        </UserObject>
        <mxCell id="TdkDroG8abzqriaLvyUH-26" value="Yes" style="text;html=1;resizable=0;labelBackgroundColor=default;align=center;verticalAlign=middle;fontStyle=1;fontColor=#333333;fontSize=11;" parent="TdkDroG8abzqriaLvyUH-25" vertex="1">
          <mxGeometry relative="1" as="geometry" />
        </mxCell>
        <UserObject label="" lucidchartObjectId="k2-YlxHTWhk2" id="TdkDroG8abzqriaLvyUH-27">
          <mxCell style="html=1;jettySize=18;whiteSpace=wrap;fontSize=11;strokeColor=#3a414a;strokeOpacity=100;strokeWidth=0.8;rounded=1;arcSize=12;edgeStyle=orthogonalEdgeStyle;startArrow=none;endArrow=block;endFill=1;exitX=0.5;exitY=1.004;exitPerimeter=0;entryX=0.5;entryY=-0.006;entryPerimeter=0;" parent="1" source="TdkDroG8abzqriaLvyUH-12" target="TdkDroG8abzqriaLvyUH-13" edge="1">
            <mxGeometry width="100" height="100" relative="1" as="geometry">
              <Array as="points" />
            </mxGeometry>
          </mxCell>
        </UserObject>
        <UserObject label="" lucidchartObjectId="u2-Ye8C7~R_l" id="TdkDroG8abzqriaLvyUH-28">
          <mxCell style="html=1;jettySize=18;whiteSpace=wrap;fontSize=11;strokeColor=#3a414a;strokeOpacity=100;strokeWidth=0.8;rounded=1;arcSize=12;edgeStyle=orthogonalEdgeStyle;startArrow=none;endArrow=block;endFill=1;exitX=1.001;exitY=0.5;exitPerimeter=0;entryX=0.5;entryY=1.004;entryPerimeter=0;" parent="1" source="TdkDroG8abzqriaLvyUH-16" target="TdkDroG8abzqriaLvyUH-50" edge="1">
            <mxGeometry width="100" height="100" relative="1" as="geometry">
              <Array as="points" />
            </mxGeometry>
          </mxCell>
        </UserObject>
        <UserObject label="" lucidchartObjectId="x2-YMKBzMeUa" id="TdkDroG8abzqriaLvyUH-29">
          <mxCell style="html=1;jettySize=18;whiteSpace=wrap;fontSize=11;strokeColor=#3a414a;strokeOpacity=100;strokeWidth=0.8;rounded=1;arcSize=12;edgeStyle=orthogonalEdgeStyle;startArrow=none;endArrow=block;endFill=1;exitX=0.5;exitY=-0.004;exitPerimeter=0;entryX=0.5;entryY=0.006;entryPerimeter=0;" parent="1" source="F2bPqRPepVmB_TyF43Np-1" target="TdkDroG8abzqriaLvyUH-11" edge="1">
            <mxGeometry width="100" height="100" relative="1" as="geometry">
              <Array as="points" />
            </mxGeometry>
          </mxCell>
        </UserObject>
        <UserObject label="" lucidchartObjectId="F4-YdpEPRU6g" id="TdkDroG8abzqriaLvyUH-30">
          <mxCell style="html=1;jettySize=18;whiteSpace=wrap;fontSize=11;fontColor=#333333;fontStyle=1;strokeColor=#3a414a;strokeOpacity=100;strokeWidth=0.8;rounded=1;arcSize=12;edgeStyle=orthogonalEdgeStyle;startArrow=none;endArrow=block;endFill=1;exitX=0.991;exitY=0.5;exitPerimeter=0;entryX=0.103;entryY=0.472;entryPerimeter=0;" parent="1" source="TdkDroG8abzqriaLvyUH-15" target="TdkDroG8abzqriaLvyUH-50" edge="1">
            <mxGeometry width="100" height="100" relative="1" as="geometry">
              <Array as="points" />
            </mxGeometry>
          </mxCell>
        </UserObject>
        <mxCell id="TdkDroG8abzqriaLvyUH-31" value="Yes" style="text;html=1;resizable=0;labelBackgroundColor=default;align=center;verticalAlign=middle;fontStyle=1;fontColor=#333333;fontSize=11;" parent="TdkDroG8abzqriaLvyUH-30" vertex="1">
          <mxGeometry relative="1" as="geometry" />
        </mxCell>
        <UserObject label="" lucidchartObjectId="H4-Y_1a7tBlx" id="TdkDroG8abzqriaLvyUH-32">
          <mxCell style="html=1;jettySize=18;whiteSpace=wrap;fontSize=11;fontColor=#333333;fontStyle=1;strokeColor=#3a414a;strokeOpacity=100;strokeWidth=0.8;rounded=1;arcSize=12;edgeStyle=orthogonalEdgeStyle;startArrow=none;endArrow=block;endFill=1;exitX=0.5;exitY=0.994;exitPerimeter=0;entryX=0.5;entryY=-0.004;entryPerimeter=0;" parent="1" source="TdkDroG8abzqriaLvyUH-15" target="TdkDroG8abzqriaLvyUH-16" edge="1">
            <mxGeometry width="100" height="100" relative="1" as="geometry">
              <Array as="points" />
            </mxGeometry>
          </mxCell>
        </UserObject>
        <mxCell id="TdkDroG8abzqriaLvyUH-33" value="No" style="text;html=1;resizable=0;labelBackgroundColor=default;align=center;verticalAlign=middle;fontStyle=1;fontColor=#333333;fontSize=11;" parent="TdkDroG8abzqriaLvyUH-32" vertex="1">
          <mxGeometry relative="1" as="geometry" />
        </mxCell>
        <UserObject label="Node minNode = head;&#xa;Node prevMin = null;&#xa;Node ptr = head;" lucidchartObjectId="4e_YAkTYvEMs" id="TdkDroG8abzqriaLvyUH-34">
          <mxCell style="html=1;overflow=block;blockSpacing=1;whiteSpace=wrap;fontSize=11;fontColor=#3a414a;spacing=9;strokeColor=#3a414a;strokeOpacity=100;rounded=1;absoluteArcSize=1;arcSize=9;strokeWidth=0.8;" parent="1" vertex="1">
            <mxGeometry x="355.7" y="723.5699999999999" width="136.25" height="52.87" as="geometry" />
          </mxCell>
        </UserObject>
        <UserObject label="" lucidchartObjectId="5g_Y1SsYWZKp" id="TdkDroG8abzqriaLvyUH-35">
          <mxCell style="html=1;jettySize=18;whiteSpace=wrap;fontSize=11;fontColor=#333333;fontStyle=1;strokeColor=#3a414a;strokeOpacity=100;strokeWidth=0.8;rounded=1;arcSize=12;edgeStyle=orthogonalEdgeStyle;startArrow=none;endArrow=block;endFill=1;exitX=0.991;exitY=0.5;exitPerimeter=0;entryX=0;entryY=0.5;entryDx=0;entryDy=0;" parent="1" source="TdkDroG8abzqriaLvyUH-11" target="TdkDroG8abzqriaLvyUH-34" edge="1">
            <mxGeometry width="100" height="100" relative="1" as="geometry">
              <Array as="points" />
              <mxPoint x="456" y="720" as="targetPoint" />
            </mxGeometry>
          </mxCell>
        </UserObject>
        <mxCell id="TdkDroG8abzqriaLvyUH-36" value="No" style="text;html=1;resizable=0;labelBackgroundColor=default;align=center;verticalAlign=middle;fontStyle=1;fontColor=#333333;fontSize=11;" parent="TdkDroG8abzqriaLvyUH-35" vertex="1">
          <mxGeometry relative="1" as="geometry" />
        </mxCell>
        <UserObject label="ptr.getNext != null?" lucidchartObjectId="Up_YTlME1B9S" id="TdkDroG8abzqriaLvyUH-37">
          <mxCell style="html=1;overflow=block;blockSpacing=1;whiteSpace=wrap;rhombus;fontSize=11;fontColor=#3a414a;spacing=3.8;strokeColor=#3a414a;strokeOpacity=100;rounded=1;absoluteArcSize=1;arcSize=9;strokeWidth=0.8;" parent="1" vertex="1">
            <mxGeometry x="357.58" y="808" width="132.5" height="52" as="geometry" />
          </mxCell>
        </UserObject>
        <UserObject label="ptr.getNext&amp;lt;minNode?" lucidchartObjectId="~v_YlfUhSXee" id="TdkDroG8abzqriaLvyUH-38">
          <mxCell style="html=1;overflow=block;blockSpacing=1;whiteSpace=wrap;rhombus;fontSize=11;fontColor=#3a414a;spacing=3.8;strokeColor=#3a414a;strokeOpacity=100;rounded=1;absoluteArcSize=1;arcSize=9;strokeWidth=0.8;" parent="1" vertex="1">
            <mxGeometry x="349.33" y="886" width="149" height="57" as="geometry" />
          </mxCell>
        </UserObject>
        <UserObject label="minNode=ptr.getNext;&#xa;prevMin=ptr;" lucidchartObjectId="CA_Ycl~oMvr8" id="TdkDroG8abzqriaLvyUH-39">
          <mxCell style="html=1;overflow=block;blockSpacing=1;whiteSpace=wrap;fontSize=11;fontColor=#3a414a;spacing=9;strokeColor=#3a414a;strokeOpacity=100;rounded=1;absoluteArcSize=1;arcSize=9;strokeWidth=0.8;" parent="1" vertex="1">
            <mxGeometry x="362.2" y="980" width="121.5" height="40" as="geometry" />
          </mxCell>
        </UserObject>
        <UserObject label="ptr=ptr.getNext" lucidchartObjectId="rB_YdtC81m.1" id="TdkDroG8abzqriaLvyUH-40">
          <mxCell style="html=1;overflow=block;blockSpacing=1;whiteSpace=wrap;fontSize=11;fontColor=#3a414a;spacing=9;strokeColor=#3a414a;strokeOpacity=100;rounded=1;absoluteArcSize=1;arcSize=9;strokeWidth=0.8;" parent="1" vertex="1">
            <mxGeometry x="370.45" y="1050" width="105" height="40" as="geometry" />
          </mxCell>
        </UserObject>
        <UserObject label="" lucidchartObjectId="RB_YqS3MScv." id="TdkDroG8abzqriaLvyUH-41">
          <mxCell style="html=1;jettySize=18;whiteSpace=wrap;fontSize=11;strokeColor=#3a414a;strokeOpacity=100;strokeWidth=0.8;rounded=1;arcSize=12;edgeStyle=orthogonalEdgeStyle;startArrow=none;endArrow=block;endFill=1;exitX=0.5;exitY=1.004;exitPerimeter=0;entryX=0.5;entryY=-0.004;entryPerimeter=0;" parent="1" source="TdkDroG8abzqriaLvyUH-39" target="TdkDroG8abzqriaLvyUH-40" edge="1">
            <mxGeometry width="100" height="100" relative="1" as="geometry">
              <Array as="points" />
            </mxGeometry>
          </mxCell>
        </UserObject>
        <UserObject label="" lucidchartObjectId="UB_YHKbva-WC" id="TdkDroG8abzqriaLvyUH-42">
          <mxCell style="html=1;jettySize=18;whiteSpace=wrap;fontSize=11;fontColor=#333333;fontStyle=1;strokeColor=#3a414a;strokeOpacity=100;strokeWidth=0.8;rounded=1;arcSize=12;edgeStyle=orthogonalEdgeStyle;startArrow=none;endArrow=block;endFill=1;exitX=0.5;exitY=0.992;exitPerimeter=0;entryX=0.5;entryY=-0.004;entryPerimeter=0;" parent="1" source="TdkDroG8abzqriaLvyUH-38" target="TdkDroG8abzqriaLvyUH-39" edge="1">
            <mxGeometry width="100" height="100" relative="1" as="geometry">
              <Array as="points" />
            </mxGeometry>
          </mxCell>
        </UserObject>
        <mxCell id="TdkDroG8abzqriaLvyUH-43" value="Yes" style="text;html=1;resizable=0;labelBackgroundColor=default;align=center;verticalAlign=middle;fontStyle=1;fontColor=#333333;fontSize=11;" parent="TdkDroG8abzqriaLvyUH-42" vertex="1">
          <mxGeometry relative="1" as="geometry" />
        </mxCell>
        <UserObject label="" lucidchartObjectId="WB_YLEV3pfFC" id="TdkDroG8abzqriaLvyUH-44">
          <mxCell style="html=1;jettySize=18;whiteSpace=wrap;fontSize=11;fontColor=#333333;fontStyle=1;strokeColor=#3a414a;strokeOpacity=100;strokeWidth=0.8;rounded=1;arcSize=12;edgeStyle=orthogonalEdgeStyle;startArrow=none;endArrow=block;endFill=1;exitX=0.989;exitY=0.5;exitPerimeter=0;entryX=1;entryY=0.5;entryDx=0;entryDy=0;" parent="1" source="TdkDroG8abzqriaLvyUH-38" target="TdkDroG8abzqriaLvyUH-40" edge="1">
            <mxGeometry width="100" height="100" relative="1" as="geometry">
              <Array as="points">
                <mxPoint x="513" y="915" />
                <mxPoint x="513" y="1070" />
              </Array>
              <mxPoint x="670.5699999999999" y="1290" as="targetPoint" />
            </mxGeometry>
          </mxCell>
        </UserObject>
        <mxCell id="TdkDroG8abzqriaLvyUH-45" value="No" style="text;html=1;resizable=0;labelBackgroundColor=default;align=center;verticalAlign=middle;fontStyle=1;fontColor=#333333;fontSize=11;" parent="TdkDroG8abzqriaLvyUH-44" vertex="1">
          <mxGeometry relative="1" as="geometry" />
        </mxCell>
        <UserObject label="" lucidchartObjectId="9B_YRP1YT~KN" id="TdkDroG8abzqriaLvyUH-46">
          <mxCell style="html=1;jettySize=18;whiteSpace=wrap;fontSize=11;fontColor=#333333;fontStyle=1;strokeColor=#3a414a;strokeOpacity=100;strokeWidth=0.8;rounded=1;arcSize=12;edgeStyle=orthogonalEdgeStyle;startArrow=none;endArrow=block;endFill=1;exitX=0.5;exitY=0.993;exitPerimeter=0;entryX=0.5;entryY=0.008;entryPerimeter=0;" parent="1" source="TdkDroG8abzqriaLvyUH-37" target="TdkDroG8abzqriaLvyUH-38" edge="1">
            <mxGeometry width="100" height="100" relative="1" as="geometry">
              <Array as="points" />
            </mxGeometry>
          </mxCell>
        </UserObject>
        <mxCell id="TdkDroG8abzqriaLvyUH-47" value="Yes" style="text;html=1;resizable=0;labelBackgroundColor=default;align=center;verticalAlign=middle;fontStyle=1;fontColor=#333333;fontSize=11;" parent="TdkDroG8abzqriaLvyUH-46" vertex="1">
          <mxGeometry relative="1" as="geometry" />
        </mxCell>
        <UserObject label="" lucidchartObjectId="uC_YveyeAHjq" id="TdkDroG8abzqriaLvyUH-48">
          <mxCell style="html=1;jettySize=18;whiteSpace=wrap;fontSize=11;fontColor=#333333;fontStyle=1;strokeColor=#3a414a;strokeOpacity=100;strokeWidth=0.8;rounded=1;arcSize=12;edgeStyle=orthogonalEdgeStyle;startArrow=none;endArrow=block;endFill=1;exitX=0.988;exitY=0.5;exitPerimeter=0;entryX=0.009;entryY=0.5;entryPerimeter=0;" parent="1" source="TdkDroG8abzqriaLvyUH-37" target="TdkDroG8abzqriaLvyUH-15" edge="1">
            <mxGeometry width="100" height="100" relative="1" as="geometry">
              <Array as="points" />
            </mxGeometry>
          </mxCell>
        </UserObject>
        <mxCell id="TdkDroG8abzqriaLvyUH-49" value="No" style="text;html=1;resizable=0;labelBackgroundColor=default;align=center;verticalAlign=middle;fontStyle=1;fontColor=#333333;fontSize=11;" parent="TdkDroG8abzqriaLvyUH-48" vertex="1">
          <mxGeometry relative="1" as="geometry" />
        </mxCell>
        <mxCell id="F2bPqRPepVmB_TyF43Np-4" style="edgeStyle=orthogonalEdgeStyle;rounded=0;orthogonalLoop=1;jettySize=auto;html=1;exitX=0.5;exitY=0;exitDx=0;exitDy=0;entryX=0.5;entryY=1;entryDx=0;entryDy=0;" parent="1" source="TdkDroG8abzqriaLvyUH-50" target="F2bPqRPepVmB_TyF43Np-1" edge="1">
          <mxGeometry relative="1" as="geometry">
            <mxPoint x="754" y="780" as="targetPoint" />
          </mxGeometry>
        </mxCell>
        <UserObject label="Print sorting process" lucidchartObjectId="-H_YXWRb78Zn" id="TdkDroG8abzqriaLvyUH-50">
          <mxCell style="html=1;overflow=block;blockSpacing=1;whiteSpace=wrap;shape=parallelogram;perimeter=parallelogramPerimeter;anchorPointDirection=0;fontSize=11;fontColor=#3a414a;spacing=3.8;strokeColor=#3a414a;strokeOpacity=100;rounded=1;absoluteArcSize=1;arcSize=9;strokeWidth=0.8;" parent="1" vertex="1">
            <mxGeometry x="686.2599999999999" y="811.51" width="140" height="44.99" as="geometry" />
          </mxCell>
        </UserObject>
        <UserObject label="" lucidchartObjectId="PK_YVCD_rc4C" id="TdkDroG8abzqriaLvyUH-51">
          <mxCell style="html=1;jettySize=18;whiteSpace=wrap;fontSize=11;strokeColor=#3a414a;strokeOpacity=100;strokeWidth=0.8;rounded=1;arcSize=12;edgeStyle=orthogonalEdgeStyle;startArrow=none;endArrow=block;endFill=1;entryX=0.5;entryY=0.007;entryPerimeter=0;" parent="1" source="TdkDroG8abzqriaLvyUH-34" target="TdkDroG8abzqriaLvyUH-37" edge="1">
            <mxGeometry width="100" height="100" relative="1" as="geometry">
              <Array as="points" />
            </mxGeometry>
          </mxCell>
        </UserObject>
        <UserObject label="" lucidchartObjectId="ZM_YMBh.e6oy" id="TdkDroG8abzqriaLvyUH-52">
          <mxCell style="html=1;jettySize=18;whiteSpace=wrap;fontSize=11;strokeColor=#3a414a;strokeOpacity=100;strokeWidth=0.8;rounded=1;arcSize=12;edgeStyle=orthogonalEdgeStyle;startArrow=none;endArrow=block;endFill=1;exitX=-0.003;exitY=0.5;exitPerimeter=0;entryX=0;entryY=0.5;entryDx=0;entryDy=0;" parent="1" source="TdkDroG8abzqriaLvyUH-40" target="TdkDroG8abzqriaLvyUH-37" edge="1">
            <mxGeometry width="100" height="100" relative="1" as="geometry">
              <Array as="points">
                <mxPoint x="333.07" y="1070" />
                <mxPoint x="333.07" y="834" />
              </Array>
              <mxPoint x="590.5699999999999" y="850" as="targetPoint" />
            </mxGeometry>
          </mxCell>
        </UserObject>
        <mxCell id="TdkDroG8abzqriaLvyUH-53" value="&lt;b&gt;&lt;font style=&quot;font-size: 15px;&quot;&gt;CLASS DIAGRAM&lt;/font&gt;&lt;/b&gt;" style="text;html=1;strokeColor=none;fillColor=none;align=center;verticalAlign=middle;whiteSpace=wrap;rounded=0;fontSize=11;" parent="1" vertex="1">
          <mxGeometry x="349" y="10" width="129.55" height="30" as="geometry" />
        </mxCell>
        <mxCell id="TdkDroG8abzqriaLvyUH-54" value="&lt;b&gt;&lt;font style=&quot;font-size: 15px;&quot;&gt;FLOWCHART&lt;/font&gt;&lt;/b&gt;" style="text;html=1;strokeColor=none;fillColor=none;align=center;verticalAlign=middle;whiteSpace=wrap;rounded=0;fontSize=11;" parent="1" vertex="1">
          <mxGeometry x="349" y="370" width="129.55" height="30" as="geometry" />
        </mxCell>
        <UserObject label="head.setNext(head.getNext)" lucidchartObjectId="4e_YAkTYvEMs" id="F2bPqRPepVmB_TyF43Np-1">
          <mxCell style="html=1;overflow=block;blockSpacing=1;whiteSpace=wrap;fontSize=11;fontColor=#3a414a;spacing=9;strokeColor=#3a414a;strokeOpacity=100;rounded=1;absoluteArcSize=1;arcSize=9;strokeWidth=0.8;" parent="1" vertex="1">
            <mxGeometry x="679.07" y="743.57" width="154.38" height="32.87" as="geometry" />
          </mxCell>
        </UserObject>
      </root>
    </mxGraphModel>
  </diagram>
</mxfile>
